<?xml version="1.0" encoding="us-ascii" standalone="no"?><svg xmlns="http://www.w3.org/2000/svg" xmlns:xlink="http://www.w3.org/1999/xlink" contentStyleType="text/css" height="1553.125px" preserveAspectRatio="none" style="width:6193px;height:1553px;background:#FFFFFF;" version="1.1" viewBox="0 0 6193 1553" width="6193.75px" zoomAndPan="magnify"><defs/><g><text fill="#000000" font-family="sans-serif" font-size="43.75" font-weight="bold" lengthAdjust="spacing" textLength="1068.75" x="2541.4063" y="73.5474">Dispute Conversation between Buyer and Seller</text><!--cluster Corpus--><g id="cluster_Corpus"><path d="M26.5625,385.8071 L189.0625,385.8071 A11.7188,11.7188 0 0 1 196.875,393.6196 L218.75,456.083 L6165.625,456.083 A7.8125,7.8125 0 0 1 6173.4375,463.8955 L6173.4375,1224.8696 A7.8125,7.8125 0 0 1 6165.625,1232.6821 L26.5625,1232.6821 A7.8125,7.8125 0 0 1 18.75,1224.8696 L18.75,393.6196 A7.8125,7.8125 0 0 1 26.5625,385.8071 " fill="#D3D3D3" style="stroke:#000000;stroke-width:4.6875;"/><line style="stroke:#000000;stroke-width:4.6875;" x1="18.75" x2="218.75" y1="456.083" y2="456.083"/><text fill="#000000" font-family="sans-serif" font-size="43.75" font-weight="bold" lengthAdjust="spacing" textLength="159.375" x="31.25" y="434.3545">Corpus</text></g><!--cluster Conversation: convo_0--><g id="cluster_Conversation: convo_0"><path d="M151.5625,595.1821 L657.8125,595.1821 A11.7188,11.7188 0 0 1 665.625,602.9946 L687.5,665.458 L6040.625,665.458 A7.8125,7.8125 0 0 1 6048.4375,673.2705 L6048.4375,1099.8696 A7.8125,7.8125 0 0 1 6040.625,1107.6821 L151.5625,1107.6821 A7.8125,7.8125 0 0 1 143.75,1099.8696 L143.75,602.9946 A7.8125,7.8125 0 0 1 151.5625,595.1821 " fill="#00298C" fill-opacity="0.70196" style="stroke:#000000;stroke-width:4.6875;"/><line style="stroke:#000000;stroke-width:4.6875;" x1="143.75" x2="687.5" y1="665.458" y2="665.458"/><text fill="#000000" font-family="sans-serif" font-size="43.75" font-weight="bold" lengthAdjust="spacing" textLength="503.125" x="156.25" y="643.7295">Conversation: convo_0</text></g><g id="elem_utt0"><rect fill="#F1F1F1" height="243.6035" style="stroke:#181818;stroke-width:1.5625;" width="834.375" x="5139.0625" y="788.9946"/><text fill="#000000" font-family="sans-serif" font-size="43.75" lengthAdjust="spacing" textLength="87.5" x="5512.5" y="837.542">utt0</text><line style="stroke:#181818;stroke-width:1.5625;" x1="5142.1875" x2="5970.3125" y1="853.0205" y2="853.0205"/><text fill="#000000" font-family="sans-serif" font-size="43.75" lengthAdjust="spacing" textLength="396.875" x="5157.8125" y="907.8179">+speaker: Buyer_0</text><text fill="#000000" font-family="sans-serif" font-size="43.75" lengthAdjust="spacing" textLength="565.625" x="5157.8125" y="959.3438">+timestamp: 1699388451</text><text fill="#000000" font-family="sans-serif" font-size="43.75" lengthAdjust="spacing" textLength="796.875" x="5157.8125" y="1010.8696">+text: "Hi there! I believe I received..."</text></g><g id="elem_utt1"><rect fill="#F1F1F1" height="243.6035" style="stroke:#181818;stroke-width:1.5625;" width="893.75" x="4057.8125" y="788.9946"/><text fill="#000000" font-family="sans-serif" font-size="43.75" lengthAdjust="spacing" textLength="87.5" x="4460.9375" y="837.542">utt1</text><line style="stroke:#181818;stroke-width:1.5625;" x1="4060.9375" x2="4948.4375" y1="853.0205" y2="853.0205"/><text fill="#000000" font-family="sans-serif" font-size="43.75" lengthAdjust="spacing" textLength="396.875" x="4076.5625" y="907.8179">+speaker: Seller_0</text><text fill="#000000" font-family="sans-serif" font-size="43.75" lengthAdjust="spacing" textLength="565.625" x="4076.5625" y="959.3438">+timestamp: 1699388553</text><text fill="#000000" font-family="sans-serif" font-size="43.75" lengthAdjust="spacing" textLength="856.25" x="4076.5625" y="1010.8696">+text: "Good afternoon! I looked over..."</text></g><g id="elem_utt2"><rect fill="#F1F1F1" height="243.6035" style="stroke:#181818;stroke-width:1.5625;" width="959.375" x="2910.9375" y="788.9946"/><text fill="#000000" font-family="sans-serif" font-size="43.75" lengthAdjust="spacing" textLength="87.5" x="3346.875" y="837.542">utt2</text><line style="stroke:#181818;stroke-width:1.5625;" x1="2914.0625" x2="3867.1875" y1="853.0205" y2="853.0205"/><text fill="#000000" font-family="sans-serif" font-size="43.75" lengthAdjust="spacing" textLength="396.875" x="2929.6875" y="907.8179">+speaker: Buyer_0</text><text fill="#000000" font-family="sans-serif" font-size="43.75" lengthAdjust="spacing" textLength="565.625" x="2929.6875" y="959.3438">+timestamp: 1699388719</text><text fill="#000000" font-family="sans-serif" font-size="43.75" lengthAdjust="spacing" textLength="921.875" x="2929.6875" y="1010.8696">+text: "I appreciate your timely response..."</text></g><g id="elem_skipped"><rect fill="#F1F1F1" height="166.3147" style="stroke:#181818;stroke-width:1.5625;" width="503.125" x="2220.3125" y="827.6509"/><text fill="#000000" font-family="sans-serif" font-size="43.75" lengthAdjust="spacing" textLength="168.75" x="2387.5" y="876.1982">skipped</text><line style="stroke:#181818;stroke-width:1.5625;" x1="2223.4375" x2="2720.3125" y1="891.6768" y2="891.6768"/><line style="stroke:#181818;stroke-width:3.125;stroke-dasharray:1.0,2.0;" x1="2223.4375" x2="2232.8125" y1="942.4397" y2="942.4397"/><text fill="#000000" font-family="sans-serif" font-size="43.75" lengthAdjust="spacing" textLength="478.125" x="2232.8125" y="957.4116">(9 utterances skipped)</text><line style="stroke:#181818;stroke-width:3.125;stroke-dasharray:1.0,2.0;" x1="2710.9375" x2="2720.3125" y1="942.4397" y2="942.4397"/></g><g id="elem_utt12"><rect fill="#F1F1F1" height="243.6035" style="stroke:#181818;stroke-width:1.5625;" width="959.375" x="1073.4375" y="788.9946"/><text fill="#000000" font-family="sans-serif" font-size="43.75" lengthAdjust="spacing" textLength="115.625" x="1495.3125" y="837.542">utt12</text><line style="stroke:#181818;stroke-width:1.5625;" x1="1076.5625" x2="2029.6875" y1="853.0205" y2="853.0205"/><text fill="#000000" font-family="sans-serif" font-size="43.75" lengthAdjust="spacing" textLength="396.875" x="1092.1875" y="907.8179">+speaker: Buyer_0</text><text fill="#000000" font-family="sans-serif" font-size="43.75" lengthAdjust="spacing" textLength="565.625" x="1092.1875" y="959.3438">+timestamp: 1699389486</text><text fill="#000000" font-family="sans-serif" font-size="43.75" lengthAdjust="spacing" textLength="921.875" x="1092.1875" y="1010.8696">+text: "Submitted agreement: Buyer gets..."</text></g><g id="elem_utt13"><rect fill="#F1F1F1" height="243.6035" style="stroke:#181818;stroke-width:1.5625;" width="603.125" x="218.75" y="788.9946"/><text fill="#000000" font-family="sans-serif" font-size="43.75" lengthAdjust="spacing" textLength="115.625" x="462.5" y="837.542">utt13</text><line style="stroke:#181818;stroke-width:1.5625;" x1="221.875" x2="818.75" y1="853.0205" y2="853.0205"/><text fill="#000000" font-family="sans-serif" font-size="43.75" lengthAdjust="spacing" textLength="396.875" x="237.5" y="907.8179">+speaker: Seller_0</text><text fill="#000000" font-family="sans-serif" font-size="43.75" lengthAdjust="spacing" textLength="565.625" x="237.5" y="959.3438">+timestamp: 1699389501</text><text fill="#000000" font-family="sans-serif" font-size="43.75" lengthAdjust="spacing" textLength="425" x="237.5" y="1010.8696">+text: "Accept Deal"</text></g><g id="elem_GMN10"><path d="M154.6875,1308.8696 L154.6875,1531.5015 L885.9375,1531.5015 L885.9375,1340.1196 L854.6875,1308.8696 L154.6875,1308.8696 " fill="#FEFFDD" style="stroke:#181818;stroke-width:1.5625;"/><path d="M854.6875,1308.8696 L854.6875,1340.1196 L885.9375,1340.1196 L854.6875,1308.8696 " fill="#FEFFDD" style="stroke:#181818;stroke-width:3.125;"/><text fill="#000000" font-family="sans-serif" font-size="40.625" font-weight="bold" lengthAdjust="spacing" textLength="368.75" x="173.4375" y="1363.7708">Corpus Metadata:</text><text fill="#000000" font-family="sans-serif" font-size="40.625" lengthAdjust="spacing" textLength="559.375" x="173.4375" y="1411.6162">- Number of Speakers: 4214</text><text fill="#000000" font-family="sans-serif" font-size="40.625" lengthAdjust="spacing" textLength="618.75" x="173.4375" y="1459.4617">- Number of Utterances: 27498</text><text fill="#000000" font-family="sans-serif" font-size="40.625" lengthAdjust="spacing" textLength="665.625" x="173.4375" y="1507.3071">- Number of Conversations: 2107</text></g><g id="elem_GMN13"><path d="M168.75,135.9009 L168.75,310.6873 L871.875,310.6873 L871.875,167.1509 L840.625,135.9009 L168.75,135.9009 " fill="#FEFFDD" style="stroke:#181818;stroke-width:1.5625;"/><path d="M840.625,135.9009 L840.625,167.1509 L871.875,167.1509 L840.625,135.9009 " fill="#FEFFDD" style="stroke:#181818;stroke-width:3.125;"/><text fill="#000000" font-family="sans-serif" font-size="40.625" lengthAdjust="spacing" textLength="12.5" x="187.5" y="190.802">&#160;</text><text fill="#000000" font-family="sans-serif" font-size="40.625" font-weight="bold" lengthAdjust="spacing" textLength="412.5" x="200" y="190.802">Dispute 1 Metadata</text><text fill="#000000" font-family="sans-serif" font-size="40.625" lengthAdjust="spacing" textLength="325" x="187.5" y="238.6475">- convo_len:  14</text><text fill="#000000" font-family="sans-serif" font-size="40.625" lengthAdjust="spacing" textLength="637.5" x="187.5" y="286.4929">- dispute_outcome: Accept Deal</text></g><!--link GMN10 to Corpus--><g id="link_GMN10_Corpus"><path d="M848.4375,1307.4634 C848.4375,1291.7368 848.4375,1274.7054 848.4375,1256.5938 C848.4375,1252.0659 848.4375,1247.4705 848.4375,1242.811 C848.4375,1240.4813 848.4375,1238.1356 848.4375,1235.7743 " fill="none" id="GMN10-Corpus" style="stroke:#181818;stroke-width:3.125;stroke-dasharray:7.0,7.0;"/></g><!--link GMN13 to Conversation: convo_0--><g id="link_GMN13_Conversation: convo_0"><path d="M673.4375,311.2759 C673.4375,377.5728 673.4375,469.6431 673.4375,545.1392 C673.4375,554.5762 673.4375,563.7542 673.4375,572.5906 C673.4375,577.0087 673.4375,581.3415 673.4375,585.5785 C673.4375,587.697 673.4375,589.7916 673.4375,591.8609 C673.4375,592.8956 673.4375,593.9239 673.4375,594.9458 " fill="none" id="GMN13-Conversation: convo_0" style="stroke:#181818;stroke-width:3.125;stroke-dasharray:7.0,7.0;"/></g><!--link utt1 to utt0--><g id="link_utt1_utt0"><path codeLine="73" d="M4952.1563,910.8071 C5013.6563,910.8071 5057.875,910.8071 5118.8125,910.8071 " fill="none" id="utt1-to-utt0" style="stroke:#181818;stroke-width:3.125;"/><polygon fill="#181818" points="5137.5625,910.8071,5109.4375,898.3071,5121.9375,910.8071,5109.4375,923.3071,5137.5625,910.8071" style="stroke:#181818;stroke-width:3.125;"/></g><!--link utt2 to utt1--><g id="link_utt2_utt1"><path codeLine="74" d="M3871.1563,910.8071 C3932.7188,910.8071 3976.7813,910.8071 4037.7812,910.8071 " fill="none" id="utt2-to-utt1" style="stroke:#181818;stroke-width:3.125;"/><polygon fill="#181818" points="4056.5312,910.8071,4028.4062,898.3071,4040.9062,910.8071,4028.4062,923.3071,4056.5312,910.8071" style="stroke:#181818;stroke-width:3.125;"/></g><!--link skipped to utt2--><g id="link_skipped_utt2"><path codeLine="75" d="M2724.1563,910.8071 C2782.0313,910.8071 2826.75,910.8071 2890.7813,910.8071 " fill="none" id="skipped-to-utt2" style="stroke:#181818;stroke-width:3.125;"/><polygon fill="#181818" points="2909.5313,910.8071,2881.4063,898.3071,2893.9063,910.8071,2881.4063,923.3071,2909.5313,910.8071" style="stroke:#181818;stroke-width:3.125;"/></g><!--link utt12 to skipped--><g id="link_utt12_skipped"><path codeLine="76" d="M2034.0313,910.8071 C2097.8438,910.8071 2142.375,910.8071 2200.125,910.8071 " fill="none" id="utt12-to-skipped" style="stroke:#181818;stroke-width:3.125;"/><polygon fill="#181818" points="2218.875,910.8071,2190.75,898.3071,2203.25,910.8071,2190.75,923.3071,2218.875,910.8071" style="stroke:#181818;stroke-width:3.125;"/></g><!--link utt13 to utt12--><g id="link_utt13_utt12"><path codeLine="77" d="M823.2188,910.8071 C901.4688,910.8071 968.9375,910.8071 1053.875,910.8071 " fill="none" id="utt13-to-utt12" style="stroke:#181818;stroke-width:3.125;"/><polygon fill="#181818" points="1072.625,910.8071,1044.5,898.3071,1057,910.8071,1044.5,923.3071,1072.625,910.8071" style="stroke:#181818;stroke-width:3.125;"/></g><!--SRC=[fLHHJzim47xthxYL1pQXTacRGXCX90RJXhJni6hFo4ckhLV7jcodK2R- -ovDMqAKmYJybFY-Et_t-VovfL26Mrv09hbpbzvRaPOURpAjfk8H8M1k3v52eLyR16tzGZS2kH4m2WYQSObGy0U8WlWKxaNk5msOM_1StmirXncN3fd4cGUlmOhvmaCkB6PUQCMO5vxgN0jdY0fSQRL2wtWLWnJzFQA2B-KQBN2LmnIbHClOCVGFBOgzA782lxr7orM6xjKymxCbdoFqhhGrfUiToOhgtF8r_6KCQ3KGpmSaGFAjz5tGWwCW6CQJB1rH0coNJlzGfr1w7pHsgtK2pY1Veatg1k-2LjYB0ftdXKaWF8tZqMGIZSCs1Xzy0htl0lm2BNw06r9D2bmXVP76A5QO3mQ3tZxlgODQU9XQhVX_S1kFHztSlccT0v_H7IYjLSLGQht473Hf-2QruVjLEmlZRcOtm8qXaGIdoLlhqcwIvPg4SqOhXvtis7xd6BvAAOmJ3cRQ0Ws_CTHN-JnlhNvsY9Sj3GRmCMvaxM2VAD8ulUlUtgzE74rEkzMPbcaXY1HTtjmY5gZyjYhCqRktXshq_gcAny61YR_CCZGUhf7BDWsIwkcGHT3sJ_Gyvvx3hVO7BO4f2f9V6T2plIDGzVFqelxPbqdEFwSN5Ed3RLca90ubJEi-NGBHC8oW5NtsemI6Pr4yQSMRxb91mk2C8PbVHOcrYNKP4QjexXmrt3FT4ErlKH8f0SA8Dl8QUQTBd-a24sXespZu5Kb_eQ5NyqEevK4zDoxJxrzid91j7lRsBsIxPx7T6B9wjAlVROZLyxJB6B9_]--></g></svg>